<svg width="512" height="512" viewBox="0 0 512 512" xmlns="http://www.w3.org/2000/svg" role="img" aria-label="Rainbot">
  <defs>
    <linearGradient id="rainbot-gradient" x1="0" y1="0" x2="1" y2="1">
      <stop offset="0%" stop-color="#38bdf8" />
      <stop offset="55%" stop-color="#8b5cf6" />
      <stop offset="100%" stop-color="#ec4899" />
    </linearGradient>
  </defs>
  <rect width="512" height="512" rx="128" fill="#0b0f1a" />
  <circle cx="256" cy="256" r="174" fill="url(#rainbot-gradient)" opacity="0.18" />
  <path
    d="M256 132c64 0 116 52 116 116 0 77-116 172-116 172S140 325 140 248c0-64 52-116 116-116z"
    fill="url(#rainbot-gradient)"
  />
  <path
    d="M256 188c34 0 62 28 62 62 0 42-62 94-62 94s-62-52-62-94c0-34 28-62 62-62z"
    fill="#0b0f1a"
    opacity="0.35"
  />
  <circle cx="256" cy="248" r="18" fill="#0b0f1a" opacity="0.5" />
</svg>
